<svg width="396" height="116" viewBox="0 0 396 116" fill="none" xmlns="http://www.w3.org/2000/svg">
<rect width="393" height="116" transform="translate(1.5)" fill="white"/>
<path d="M348.5 16H47.5C30.9315 16 17.5 29.4315 17.5 46C17.5 62.5685 30.9315 76 47.5 76H348.5C365.069 76 378.5 62.5685 378.5 46C378.5 29.4315 365.069 16 348.5 16Z" fill="#515B92" fill-opacity="0.1"/>
<path d="M258 96H138C136.895 96 136 96.8954 136 98C136 99.1046 136.895 100 138 100H258C259.105 100 260 99.1046 260 98C260 96.8954 259.105 96 258 96Z" fill="black"/>
<path d="M303.5 46C303.5 29.4315 290.069 16 273.5 16C256.931 16 243.5 29.4315 243.5 46C243.5 62.5685 256.931 76 273.5 76C290.069 76 303.5 62.5685 303.5 46Z" fill="#68548E"/>
<path d="M45.5001 51V46H49.5001V51C49.5001 51.55 49.9501 52 50.5001 52H53.5001C54.0501 52 54.5001 51.55 54.5001 51V44H56.2001C56.6601 44 56.8801 43.43 56.5301 43.13L48.1701 35.6C47.7901 35.26 47.2101 35.26 46.8301 35.6L38.4701 43.13C38.1301 43.43 38.3401 44 38.8001 44H40.5001V51C40.5001 51.55 40.9501 52 41.5001 52H44.5001C45.0501 52 45.5001 51.55 45.5001 51Z" fill="#68548E"/>
<path d="M122.75 39V37C122.75 35.9 121.85 35 120.75 35H114.75C113.65 35 112.75 35.9 112.75 37V51C112.75 52.1 113.65 53 114.75 53H130.75C131.85 53 132.75 52.1 132.75 51V41C132.75 39.9 131.85 39 130.75 39H122.75ZM116.75 51H114.75V49H116.75V51ZM116.75 47H114.75V45H116.75V47ZM116.75 43H114.75V41H116.75V43ZM116.75 39H114.75V37H116.75V39ZM120.75 51H118.75V49H120.75V51ZM120.75 47H118.75V45H120.75V47ZM120.75 43H118.75V41H120.75V43ZM120.75 39H118.75V37H120.75V39ZM129.75 51H122.75V49H124.75V47H122.75V45H124.75V43H122.75V41H129.75C130.3 41 130.75 41.45 130.75 42V50C130.75 50.55 130.3 51 129.75 51ZM128.75 43H126.75V45H128.75V43ZM128.75 47H126.75V49H128.75V47Z" fill="#68548E"/>
<mask id="mask0_1_2" style="mask-type:luminance" maskUnits="userSpaceOnUse" x="186" y="32" width="24" height="24">
<path d="M210 32H186V56H210V32Z" fill="white"/>
</mask>
<g mask="url(#mask0_1_2)">
<path d="M198 44.75C199.63 44.75 201.07 45.14 202.24 45.65C203.32 46.13 204 47.21 204 48.38V49C204 49.55 203.55 50 203 50H193C192.45 50 192 49.55 192 49V48.39C192 47.21 192.68 46.13 193.76 45.66C194.93 45.14 196.37 44.75 198 44.75ZM190 45C191.1 45 192 44.1 192 43C192 41.9 191.1 41 190 41C188.9 41 188 41.9 188 43C188 44.1 188.9 45 190 45ZM191.13 46.1C190.76 46.04 190.39 46 190 46C189.01 46 188.07 46.21 187.22 46.58C186.48 46.9 186 47.62 186 48.43V49C186 49.55 186.45 50 187 50H190.5V48.39C190.5 47.56 190.73 46.78 191.13 46.1ZM206 45C207.1 45 208 44.1 208 43C208 41.9 207.1 41 206 41C204.9 41 204 41.9 204 43C204 44.1 204.9 45 206 45ZM210 48.43C210 47.62 209.52 46.9 208.78 46.58C207.93 46.21 206.99 46 206 46C205.61 46 205.24 46.04 204.87 46.1C205.27 46.78 205.5 47.56 205.5 48.39V50H209C209.55 50 210 49.55 210 49V48.43ZM198 38C199.66 38 201 39.34 201 41C201 42.66 199.66 44 198 44C196.34 44 195 42.66 195 41C195 39.34 196.34 38 198 38Z" fill="#68548E"/>
</g>
<path d="M279.25 33C279.8 33 280.25 33.45 280.25 34V35H281.25C282.35 35 283.25 35.9 283.25 37V53C283.25 54.1 282.35 55 281.25 55H265.25C264.15 55 263.25 54.1 263.25 53V37C263.25 35.9 264.15 35 265.25 35H266.25V34C266.25 33.45 266.7 33 267.25 33C267.8 33 268.25 33.45 268.25 34V35H278.25V34C278.25 33.45 278.7 33 279.25 33ZM265.25 40V52C265.25 52.55 265.7 53 266.25 53H280.25C280.8 53 281.25 52.55 281.25 52V40H265.25Z" fill="white"/>
<path d="M289.75 36C289.75 31.3056 285.944 27.5 281.25 27.5C276.556 27.5 272.75 31.3056 272.75 36C272.75 40.6944 276.556 44.5 281.25 44.5C285.944 44.5 289.75 40.6944 289.75 36Z" fill="#2342E6"/>
<path d="M289.75 36C289.75 31.3056 285.944 27.5 281.25 27.5C276.556 27.5 272.75 31.3056 272.75 36C272.75 40.6944 276.556 44.5 281.25 44.5C285.944 44.5 289.75 40.6944 289.75 36Z" stroke="white"/>
<path d="M282.249 32.153V40H280.955V33.689L279.037 34.339V33.27L282.093 32.153H282.249Z" fill="white"/>
<path d="M340.5 50H356.5C357.05 50 357.5 49.55 357.5 49C357.5 48.45 357.05 48 356.5 48H340.5C339.95 48 339.5 48.45 339.5 49C339.5 49.55 339.95 50 340.5 50ZM340.5 45H356.5C357.05 45 357.5 44.55 357.5 44C357.5 43.45 357.05 43 356.5 43H340.5C339.95 43 339.5 43.45 339.5 44C339.5 44.55 339.95 45 340.5 45ZM339.5 39C339.5 39.55 339.95 40 340.5 40H356.5C357.05 40 357.5 39.55 357.5 39C357.5 38.45 357.05 38 356.5 38H340.5C339.95 38 339.5 38.45 339.5 39Z" fill="#68548E"/>
</svg>
